ffmpeg started on 2026-01-13 at 12:39:35
Report written to "D:\Convert\FFMetrics\reports\ssim_report-6.txt"
Log level: 32
Command line:
ffmpeg -hide_banner -nostdin -r 24000/1001 -i "F:\\Convert\\files\\[DC] Make Heroine ga Oosugiru - 07_Telegram_HEVC(98).mkv" -r 24000/1001 -i "F:\\Convert\\files\\[DC] Make Heroine ga Oosugiru - 07_Telegram.mp4" -lavfi "[0:v]settb=AVTB,setpts=PTS-STARTPTS,format=pix_fmts=yuv420p10le,fps=24000/1001,scale=1920:1080:flags=lanczos:param0=3:out_range=limited:out_color_matrix=bt709:out_chroma_loc=left,setsar=1/1,setdar=(1920/1080)*(1/1),colorspace=format=yuv420p10:range=tv:primaries=bt709:trc=bt709:space=bt709:fast=0[main];[1:v]settb=AVTB,setpts=PTS-STARTPTS,format=pix_fmts=yuv420p,fps=24000/1001,scale=1920:1080:flags=lanczos:param0=3:out_range=limited:out_color_matrix=bt709:out_chroma_loc=left,setsar=1.000,setdar=1.778,colorspace=format=yuv420p:range=tv:primaries=bt709:trc=bt709:space=bt709:fast=0[ref];[main][ref]ssim=eof_action=endall:stats_file='D\\:/Convert/FFMetrics/logs/ssim_logfile-6.txt'" -f null -
Input #0, matroska,webm, from 'F:\Convert\files\[DC] Make Heroine ga Oosugiru - 07_Telegram_HEVC(98).mkv':
  Metadata:
    COMPATIBLE_BRANDS: isomiso2avc1mp41
    MAJOR_BRAND     : isom
    MINOR_VERSION   : 512
    ENCODER         : Lavf61.7.100
  Duration: 00:24:06.79, start: -0.021000, bitrate: 970 kb/s
  Stream #0:0: Video: hevc (Main 10), yuv420p10le(tv, bt709, progressive), 1920x1080 [SAR 1:1 DAR 16:9], 23.98 fps, 23.98 tbr, 1k tbn (default)
      Metadata:
        HANDLER_NAME    : VideoHandler
        VENDOR_ID       : [0][0][0][0]
        ENCODER         : Lavc61.19.100 libx265
        BPS             : 773631
        DURATION        : 00:24:06.569708333
        NUMBER_OF_FRAMES: 34683
        NUMBER_OF_BYTES : 139888887
        _STATISTICS_WRITING_APP: mkvpropedit v94.0 ('Initiate') 64-bit
        _STATISTICS_WRITING_DATE_UTC: 2026-01-12 10:43:01
        _STATISTICS_TAGS: BPS DURATION NUMBER_OF_FRAMES NUMBER_OF_BYTES
  Stream #0:1: Audio: aac (LC), 48000 Hz, stereo, fltp (default)
      Metadata:
        HANDLER_NAME    : SoundHandler
        VENDOR_ID       : [0][0][0][0]
        ENCODER         : Lavc61.19.100 aac
        BPS             : 193194
        DURATION        : 00:24:06.784000000
        NUMBER_OF_FRAMES: 67819
        NUMBER_OF_BYTES : 34938755
        _STATISTICS_WRITING_APP: mkvpropedit v94.0 ('Initiate') 64-bit
        _STATISTICS_WRITING_DATE_UTC: 2026-01-12 10:43:01
        _STATISTICS_TAGS: BPS DURATION NUMBER_OF_FRAMES NUMBER_OF_BYTES
Input #1, mov,mp4,m4a,3gp,3g2,mj2, from 'F:\Convert\files\[DC] Make Heroine ga Oosugiru - 07_Telegram.mp4':
  Metadata:
    major_brand     : isom
    minor_version   : 512
    compatible_brands: isomiso2avc1mp41
    encoder         : Lavf60.16.100
  Duration: 00:24:06.74, start: 0.000000, bitrate: 3764 kb/s
  Stream #1:0[0x1](und): Video: h264 (High) (avc1 / 0x31637661), yuv420p(tv, bt709, progressive), 1920x1080 [SAR 1:1 DAR 16:9], 3616 kb/s, 23.98 fps, 23.98 tbr, 24k tbn (default)
      Metadata:
        handler_name    : VideoHandler
        vendor_id       : [0][0][0][0]
        encoder         : Lavc60.31.102 h264_qsv
  Stream #1:1[0x2](und): Audio: aac (HE-AACv2) (mp4a / 0x6134706D), 48000 Hz, stereo, fltp, 144 kb/s (default)
      Metadata:
        handler_name    : SoundHandler
        vendor_id       : [0][0][0][0]
Stream mapping:
  Stream #0:0 (hevc) -> settb:default
  Stream #1:0 (h264) -> settb:default
  ssim:default -> Stream #0:0 (wrapped_avframe)
  Stream #0:1 -> #0:1 (aac (native) -> pcm_s16le (native))
Output #0, null, to 'pipe:':
  Metadata:
    COMPATIBLE_BRANDS: isomiso2avc1mp41
    MAJOR_BRAND     : isom
    MINOR_VERSION   : 512
    encoder         : Lavf61.7.100
  Stream #0:0: Video: wrapped_avframe, yuv420p10le(tv, bt709, progressive), 1920x1080 [SAR 1:1 DAR 16:9], q=2-31, 200 kb/s, 23.98 fps, 23.98 tbn
      Metadata:
        encoder         : Lavc61.19.100 wrapped_avframe
  Stream #0:1: Audio: pcm_s16le, 48000 Hz, stereo, s16, 1536 kb/s (default)
      Metadata:
        HANDLER_NAME    : SoundHandler
        VENDOR_ID       : [0][0][0][0]
        _STATISTICS_TAGS: BPS DURATION NUMBER_OF_FRAMES NUMBER_OF_BYTES
        BPS             : 193194
        DURATION        : 00:24:06.784000000
        NUMBER_OF_FRAMES: 67819
        NUMBER_OF_BYTES : 34938755
        _STATISTICS_WRITING_APP: mkvpropedit v94.0 ('Initiate') 64-bit
        _STATISTICS_WRITING_DATE_UTC: 2026-01-12 10:43:01
        encoder         : Lavc61.19.100 pcm_s16le
frame=  127 fps=0.0 q=-0.0 size=N/A time=00:00:05.29 bitrate=N/A speed=10.3x    frame=  317 fps=305 q=-0.0 size=N/A time=00:00:13.22 bitrate=N/A speed=12.7x    frame=  513 fps=332 q=-0.0 size=N/A time=00:00:21.39 bitrate=N/A speed=13.8x    frame=  701 fps=338 q=-0.0 size=N/A time=00:00:29.23 bitrate=N/A speed=14.1x    frame=  886 fps=343 q=-0.0 size=N/A time=00:00:36.95 bitrate=N/A speed=14.3x    frame= 1030 fps=332 q=-0.0 size=N/A time=00:00:42.95 bitrate=N/A speed=13.8x    frame= 1195 fps=331 q=-0.0 size=N/A time=00:00:49.84 bitrate=N/A speed=13.8x    frame= 1366 fps=330 q=-0.0 size=N/A time=00:00:56.97 bitrate=N/A speed=13.8x    frame= 1520 fps=328 q=-0.0 size=N/A time=00:01:03.39 bitrate=N/A speed=13.7x    frame= 1669 fps=323 q=-0.0 size=N/A time=00:01:09.61 bitrate=N/A speed=13.5x    frame= 1840 fps=324 q=-0.0 size=N/A time=00:01:16.74 bitrate=N/A speed=13.5x    frame= 2012 fps=325 q=-0.0 size=N/A time=00:01:23.91 bitrate=N/A speed=13.5x    frame= 2112 fps=315 q=-0.0 size=N/A time=00:01:28.08 bitrate=N/A speed=13.1x    frame= 2277 fps=315 q=-0.0 size=N/A time=00:01:34.96 bitrate=N/A speed=13.1x    frame= 2425 fps=313 q=-0.0 size=N/A time=00:01:41.14 bitrate=N/A speed=13.1x    frame= 2563 fps=310 q=-0.0 size=N/A time=00:01:46.89 bitrate=N/A speed=12.9x    frame= 2728 fps=311 q=-0.0 size=N/A time=00:01:53.78 bitrate=N/A speed=  13x    frame= 2910 fps=313 q=-0.0 size=N/A time=00:02:01.37 bitrate=N/A speed=  13x    frame= 3093 fps=315 q=-0.0 size=N/A time=00:02:09.00 bitrate=N/A speed=13.1x    frame= 3285 fps=318 q=-0.0 size=N/A time=00:02:17.01 bitrate=N/A speed=13.3x    frame= 3476 fps=320 q=-0.0 size=N/A time=00:02:24.97 bitrate=N/A speed=13.4x    frame= 3675 fps=323 q=-0.0 size=N/A time=00:02:33.27 bitrate=N/A speed=13.5x    frame= 3859 fps=325 q=-0.0 size=N/A time=00:02:40.95 bitrate=N/A speed=13.5x    frame= 4052 fps=327 q=-0.0 size=N/A time=00:02:49.00 bitrate=N/A speed=13.6x    frame= 4247 fps=329 q=-0.0 size=N/A time=00:02:57.13 bitrate=N/A speed=13.7x    frame= 4433 fps=330 q=-0.0 size=N/A time=00:03:04.89 bitrate=N/A speed=13.8x    frame= 4620 fps=331 q=-0.0 size=N/A time=00:03:12.69 bitrate=N/A speed=13.8x    frame= 4811 fps=333 q=-0.0 size=N/A time=00:03:20.65 bitrate=N/A speed=13.9x    frame= 5006 fps=334 q=-0.0 size=N/A time=00:03:28.79 bitrate=N/A speed=13.9x    frame= 5198 fps=336 q=-0.0 size=N/A time=00:03:36.79 bitrate=N/A speed=  14x    frame= 5392 fps=337 q=-0.0 size=N/A time=00:03:44.89 bitrate=N/A speed=  14x    frame= 5584 fps=338 q=-0.0 size=N/A time=00:03:52.89 bitrate=N/A speed=14.1x    frame= 5765 fps=338 q=-0.0 size=N/A time=00:04:00.44 bitrate=N/A speed=14.1x    frame= 5968 fps=340 q=-0.0 size=N/A time=00:04:08.91 bitrate=N/A speed=14.2x    frame= 6159 fps=341 q=-0.0 size=N/A time=00:04:16.88 bitrate=N/A speed=14.2x    frame= 6349 fps=342 q=-0.0 size=N/A time=00:04:24.80 bitrate=N/A speed=14.2x    frame= 6541 fps=343 q=-0.0 size=N/A time=00:04:32.81 bitrate=N/A speed=14.3x    frame= 6741 fps=344 q=-0.0 size=N/A time=00:04:41.15 bitrate=N/A speed=14.3x    frame= 6934 fps=344 q=-0.0 size=N/A time=00:04:49.20 bitrate=N/A speed=14.4x    frame= 7120 fps=345 q=-0.0 size=N/A time=00:04:56.96 bitrate=N/A speed=14.4x    frame= 7303 fps=345 q=-0.0 size=N/A time=00:05:04.59 bitrate=N/A speed=14.4x    frame= 7491 fps=346 q=-0.0 size=N/A time=00:05:12.43 bitrate=N/A speed=14.4x    frame= 7671 fps=346 q=-0.0 size=N/A time=00:05:19.94 bitrate=N/A speed=14.4x    frame= 7863 fps=346 q=-0.0 size=N/A time=00:05:27.95 bitrate=N/A speed=14.4x    frame= 8040 fps=346 q=-0.0 size=N/A time=00:05:35.33 bitrate=N/A speed=14.4x    frame= 8226 fps=347 q=-0.0 size=N/A time=00:05:43.09 bitrate=N/A speed=14.5x    frame= 8417 fps=347 q=-0.0 size=N/A time=00:05:51.05 bitrate=N/A speed=14.5x    frame= 8600 fps=347 q=-0.0 size=N/A time=00:05:58.69 bitrate=N/A speed=14.5x    frame= 8781 fps=347 q=-0.0 size=N/A time=00:06:06.24 bitrate=N/A speed=14.5x    frame= 8975 fps=348 q=-0.0 size=N/A time=00:06:14.33 bitrate=N/A speed=14.5x    frame= 9165 fps=348 q=-0.0 size=N/A time=00:06:22.25 bitrate=N/A speed=14.5x    frame= 9352 fps=348 q=-0.0 size=N/A time=00:06:30.05 bitrate=N/A speed=14.5x    frame= 9540 fps=349 q=-0.0 size=N/A time=00:06:37.89 bitrate=N/A speed=14.5x    frame= 9735 fps=349 q=-0.0 size=N/A time=00:06:46.03 bitrate=N/A speed=14.6x    frame= 9923 fps=350 q=-0.0 size=N/A time=00:06:53.87 bitrate=N/A speed=14.6x    frame=10108 fps=350 q=-0.0 size=N/A time=00:07:01.58 bitrate=N/A speed=14.6x    frame=10301 fps=350 q=-0.0 size=N/A time=00:07:09.63 bitrate=N/A speed=14.6x    frame=10490 fps=350 q=-0.0 size=N/A time=00:07:17.52 bitrate=N/A speed=14.6x    frame=10681 fps=351 q=-0.0 size=N/A time=00:07:25.48 bitrate=N/A speed=14.6x    frame=10866 fps=351 q=-0.0 size=N/A time=00:07:33.20 bitrate=N/A speed=14.6x    frame=11063 fps=351 q=-0.0 size=N/A time=00:07:41.41 bitrate=N/A speed=14.7x    frame=11252 fps=352 q=-0.0 size=N/A time=00:07:49.30 bitrate=N/A speed=14.7x    frame=11439 fps=352 q=-0.0 size=N/A time=00:07:57.10 bitrate=N/A speed=14.7x    frame=11625 fps=352 q=-0.0 size=N/A time=00:08:04.85 bitrate=N/A speed=14.7x    frame=11816 fps=352 q=-0.0 size=N/A time=00:08:12.82 bitrate=N/A speed=14.7x    frame=12002 fps=352 q=-0.0 size=N/A time=00:08:20.58 bitrate=N/A speed=14.7x    frame=12186 fps=352 q=-0.0 size=N/A time=00:08:28.25 bitrate=N/A speed=14.7x    frame=12373 fps=352 q=-0.0 size=N/A time=00:08:36.05 bitrate=N/A speed=14.7x    frame=12565 fps=353 q=-0.0 size=N/A time=00:08:44.06 bitrate=N/A speed=14.7x    frame=12752 fps=353 q=-0.0 size=N/A time=00:08:51.86 bitrate=N/A speed=14.7x    frame=12945 fps=353 q=-0.0 size=N/A time=00:08:59.91 bitrate=N/A speed=14.7x    frame=13124 fps=353 q=-0.0 size=N/A time=00:09:07.38 bitrate=N/A speed=14.7x    frame=13310 fps=353 q=-0.0 size=N/A time=00:09:15.13 bitrate=N/A speed=14.7x    frame=13493 fps=353 q=-0.0 size=N/A time=00:09:22.77 bitrate=N/A speed=14.7x    frame=13682 fps=353 q=-0.0 size=N/A time=00:09:30.65 bitrate=N/A speed=14.7x    frame=13867 fps=354 q=-0.0 size=N/A time=00:09:38.36 bitrate=N/A speed=14.7x    frame=14059 fps=354 q=-0.0 size=N/A time=00:09:46.37 bitrate=N/A speed=14.8x    frame=14234 fps=354 q=-0.0 size=N/A time=00:09:53.67 bitrate=N/A speed=14.7x    frame=14417 fps=354 q=-0.0 size=N/A time=00:10:01.30 bitrate=N/A speed=14.7x    frame=14616 fps=354 q=-0.0 size=N/A time=00:10:09.60 bitrate=N/A speed=14.8x    frame=14806 fps=354 q=-0.0 size=N/A time=00:10:17.53 bitrate=N/A speed=14.8x    frame=14996 fps=354 q=-0.0 size=N/A time=00:10:25.45 bitrate=N/A speed=14.8x    frame=15163 fps=354 q=-0.0 size=N/A time=00:10:32.42 bitrate=N/A speed=14.8x    frame=15353 fps=354 q=-0.0 size=N/A time=00:10:40.34 bitrate=N/A speed=14.8x    frame=15546 fps=354 q=-0.0 size=N/A time=00:10:48.39 bitrate=N/A speed=14.8x    frame=15728 fps=354 q=-0.0 size=N/A time=00:10:55.98 bitrate=N/A speed=14.8x    frame=15928 fps=355 q=-0.0 size=N/A time=00:11:04.33 bitrate=N/A speed=14.8x    frame=16111 fps=355 q=-0.0 size=N/A time=00:11:11.96 bitrate=N/A speed=14.8x    frame=16312 fps=355 q=-0.0 size=N/A time=00:11:20.34 bitrate=N/A speed=14.8x    frame=16503 fps=355 q=-0.0 size=N/A time=00:11:28.31 bitrate=N/A speed=14.8x    frame=16689 fps=355 q=-0.0 size=N/A time=00:11:36.07 bitrate=N/A speed=14.8x    frame=16886 fps=356 q=-0.0 size=N/A time=00:11:44.28 bitrate=N/A speed=14.8x    frame=17081 fps=356 q=-0.0 size=N/A time=00:11:52.42 bitrate=N/A speed=14.8x    frame=17273 fps=356 q=-0.0 size=N/A time=00:12:00.42 bitrate=N/A speed=14.9x    frame=17465 fps=356 q=-0.0 size=N/A time=00:12:08.43 bitrate=N/A speed=14.9x    frame=17649 fps=356 q=-0.0 size=N/A time=00:12:16.11 bitrate=N/A speed=14.9x    frame=17836 fps=356 q=-0.0 size=N/A time=00:12:23.90 bitrate=N/A speed=14.9x    frame=18034 fps=357 q=-0.0 size=N/A time=00:12:32.16 bitrate=N/A speed=14.9x    frame=18221 fps=357 q=-0.0 size=N/A time=00:12:39.96 bitrate=N/A speed=14.9x    frame=18406 fps=357 q=-0.0 size=N/A time=00:12:47.68 bitrate=N/A speed=14.9x    frame=18602 fps=357 q=-0.0 size=N/A time=00:12:55.85 bitrate=N/A speed=14.9x    frame=18791 fps=357 q=-0.0 size=N/A time=00:13:03.74 bitrate=N/A speed=14.9x    frame=18984 fps=357 q=-0.0 size=N/A time=00:13:11.79 bitrate=N/A speed=14.9x    frame=19180 fps=357 q=-0.0 size=N/A time=00:13:19.96 bitrate=N/A speed=14.9x    frame=19383 fps=358 q=-0.0 size=N/A time=00:13:28.43 bitrate=N/A speed=14.9x    frame=19578 fps=358 q=-0.0 size=N/A time=00:13:36.56 bitrate=N/A speed=14.9x    frame=19764 fps=358 q=-0.0 size=N/A time=00:13:44.32 bitrate=N/A speed=14.9x    frame=19971 fps=358 q=-0.0 size=N/A time=00:13:52.95 bitrate=N/A speed=14.9x    frame=20162 fps=359 q=-0.0 size=N/A time=00:14:00.92 bitrate=N/A speed=  15x    frame=20353 fps=359 q=-0.0 size=N/A time=00:14:08.88 bitrate=N/A speed=  15x    frame=20540 fps=359 q=-0.0 size=N/A time=00:14:16.68 bitrate=N/A speed=  15x    frame=20728 fps=359 q=-0.0 size=N/A time=00:14:24.53 bitrate=N/A speed=  15x    frame=20920 fps=359 q=-0.0 size=N/A time=00:14:32.53 bitrate=N/A speed=  15x    frame=21119 fps=359 q=-0.0 size=N/A time=00:14:40.83 bitrate=N/A speed=  15x    frame=21312 fps=359 q=-0.0 size=N/A time=00:14:48.88 bitrate=N/A speed=  15x    frame=21499 fps=359 q=-0.0 size=N/A time=00:14:56.68 bitrate=N/A speed=  15x    frame=21701 fps=359 q=-0.0 size=N/A time=00:15:05.11 bitrate=N/A speed=  15x    frame=21890 fps=360 q=-0.0 size=N/A time=00:15:12.99 bitrate=N/A speed=  15x    frame=22088 fps=360 q=-0.0 size=N/A time=00:15:21.25 bitrate=N/A speed=  15x    frame=22283 fps=360 q=-0.0 size=N/A time=00:15:29.38 bitrate=N/A speed=  15x    frame=22478 fps=360 q=-0.0 size=N/A time=00:15:37.51 bitrate=N/A speed=  15x    frame=22675 fps=360 q=-0.0 size=N/A time=00:15:45.73 bitrate=N/A speed=  15x    frame=22864 fps=360 q=-0.0 size=N/A time=00:15:53.61 bitrate=N/A speed=  15x    frame=23059 fps=360 q=-0.0 size=N/A time=00:16:01.75 bitrate=N/A speed=  15x    frame=23251 fps=360 q=-0.0 size=N/A time=00:16:09.76 bitrate=N/A speed=  15x    frame=23442 fps=361 q=-0.0 size=N/A time=00:16:17.72 bitrate=N/A speed=  15x    frame=23644 fps=361 q=-0.0 size=N/A time=00:16:26.15 bitrate=N/A speed=  15x    frame=23837 fps=361 q=-0.0 size=N/A time=00:16:34.20 bitrate=N/A speed=15.1x    frame=24030 fps=361 q=-0.0 size=N/A time=00:16:42.25 bitrate=N/A speed=15.1x    frame=24216 fps=361 q=-0.0 size=N/A time=00:16:50.00 bitrate=N/A speed=15.1x    frame=24408 fps=361 q=-0.0 size=N/A time=00:16:58.01 bitrate=N/A speed=15.1x    frame=24601 fps=361 q=-0.0 size=N/A time=00:17:06.06 bitrate=N/A speed=15.1x    frame=24789 fps=361 q=-0.0 size=N/A time=00:17:13.90 bitrate=N/A speed=15.1x    frame=24984 fps=361 q=-0.0 size=N/A time=00:17:22.04 bitrate=N/A speed=15.1x    frame=25173 fps=361 q=-0.0 size=N/A time=00:17:29.92 bitrate=N/A speed=15.1x    frame=25363 fps=361 q=-0.0 size=N/A time=00:17:37.84 bitrate=N/A speed=15.1x    frame=25549 fps=362 q=-0.0 size=N/A time=00:17:45.60 bitrate=N/A speed=15.1x    frame=25745 fps=362 q=-0.0 size=N/A time=00:17:53.78 bitrate=N/A speed=15.1x    frame=25938 fps=362 q=-0.0 size=N/A time=00:18:01.83 bitrate=N/A speed=15.1x    frame=26124 fps=362 q=-0.0 size=N/A time=00:18:09.58 bitrate=N/A speed=15.1x    frame=26329 fps=362 q=-0.0 size=N/A time=00:18:18.13 bitrate=N/A speed=15.1x    frame=26516 fps=362 q=-0.0 size=N/A time=00:18:25.93 bitrate=N/A speed=15.1x    frame=26699 fps=362 q=-0.0 size=N/A time=00:18:33.57 bitrate=N/A speed=15.1x    frame=26884 fps=362 q=-0.0 size=N/A time=00:18:41.28 bitrate=N/A speed=15.1x    frame=27057 fps=362 q=-0.0 size=N/A time=00:18:48.50 bitrate=N/A speed=15.1x    frame=27249 fps=362 q=-0.0 size=N/A time=00:18:56.51 bitrate=N/A speed=15.1x    frame=27435 fps=362 q=-0.0 size=N/A time=00:19:04.26 bitrate=N/A speed=15.1x    frame=27626 fps=362 q=-0.0 size=N/A time=00:19:12.23 bitrate=N/A speed=15.1x    frame=27817 fps=362 q=-0.0 size=N/A time=00:19:20.20 bitrate=N/A speed=15.1x    frame=28002 fps=362 q=-0.0 size=N/A time=00:19:27.91 bitrate=N/A speed=15.1x    frame=28198 fps=362 q=-0.0 size=N/A time=00:19:36.09 bitrate=N/A speed=15.1x    frame=28382 fps=362 q=-0.0 size=N/A time=00:19:43.76 bitrate=N/A speed=15.1x    frame=28574 fps=362 q=-0.0 size=N/A time=00:19:51.77 bitrate=N/A speed=15.1x    frame=28764 fps=362 q=-0.0 size=N/A time=00:19:59.69 bitrate=N/A speed=15.1x    frame=28931 fps=362 q=-0.0 size=N/A time=00:20:06.66 bitrate=N/A speed=15.1x    frame=29118 fps=362 q=-0.0 size=N/A time=00:20:14.46 bitrate=N/A speed=15.1x    frame=29300 fps=362 q=-0.0 size=N/A time=00:20:22.05 bitrate=N/A speed=15.1x    frame=29481 fps=362 q=-0.0 size=N/A time=00:20:29.60 bitrate=N/A speed=15.1x    frame=29657 fps=362 q=-0.0 size=N/A time=00:20:36.94 bitrate=N/A speed=15.1x    frame=29842 fps=362 q=-0.0 size=N/A time=00:20:44.66 bitrate=N/A speed=15.1x    frame=30008 fps=361 q=-0.0 size=N/A time=00:20:51.58 bitrate=N/A speed=15.1x    frame=30190 fps=361 q=-0.0 size=N/A time=00:20:59.17 bitrate=N/A speed=15.1x    frame=30379 fps=361 q=-0.0 size=N/A time=00:21:07.05 bitrate=N/A speed=15.1x    frame=30572 fps=361 q=-0.0 size=N/A time=00:21:15.10 bitrate=N/A speed=15.1x    frame=30766 fps=361 q=-0.0 size=N/A time=00:21:23.19 bitrate=N/A speed=15.1x    frame=30958 fps=361 q=-0.0 size=N/A time=00:21:31.20 bitrate=N/A speed=15.1x    frame=31136 fps=361 q=-0.0 size=N/A time=00:21:38.63 bitrate=N/A speed=15.1x    frame=31331 fps=361 q=-0.0 size=N/A time=00:21:46.76 bitrate=N/A speed=15.1x    frame=31509 fps=361 q=-0.0 size=N/A time=00:21:54.18 bitrate=N/A speed=15.1x    frame=31699 fps=361 q=-0.0 size=N/A time=00:22:02.11 bitrate=N/A speed=15.1x    frame=31876 fps=361 q=-0.0 size=N/A time=00:22:09.49 bitrate=N/A speed=15.1x    frame=32066 fps=361 q=-0.0 size=N/A time=00:22:17.41 bitrate=N/A speed=15.1x    frame=32259 fps=361 q=-0.0 size=N/A time=00:22:25.46 bitrate=N/A speed=15.1x    frame=32448 fps=361 q=-0.0 size=N/A time=00:22:33.35 bitrate=N/A speed=15.1x    frame=32636 fps=361 q=-0.0 size=N/A time=00:22:41.19 bitrate=N/A speed=15.1x    frame=32792 fps=361 q=-0.0 size=N/A time=00:22:47.69 bitrate=N/A speed=15.1x    frame=32962 fps=361 q=-0.0 size=N/A time=00:22:54.79 bitrate=N/A speed=15.1x    frame=33152 fps=361 q=-0.0 size=N/A time=00:23:02.71 bitrate=N/A speed=15.1x    frame=33336 fps=361 q=-0.0 size=N/A time=00:23:10.38 bitrate=N/A speed=15.1x    frame=33502 fps=361 q=-0.0 size=N/A time=00:23:17.31 bitrate=N/A speed=  15x    frame=33656 fps=360 q=-0.0 size=N/A time=00:23:23.73 bitrate=N/A speed=  15x    frame=33792 fps=360 q=-0.0 size=N/A time=00:23:29.40 bitrate=N/A speed=  15x    frame=33927 fps=359 q=-0.0 size=N/A time=00:23:35.03 bitrate=N/A speed=  15x    frame=34088 fps=359 q=-0.0 size=N/A time=00:23:41.75 bitrate=N/A speed=  15x    frame=34253 fps=359 q=-0.0 size=N/A time=00:23:48.63 bitrate=N/A speed=  15x    frame=34385 fps=358 q=-0.0 size=N/A time=00:23:54.14 bitrate=N/A speed=14.9x    frame=34543 fps=358 q=-0.0 size=N/A time=00:24:00.73 bitrate=N/A speed=14.9x    [Parsed_ssim_16 @ 00000231e8850000] SSIM Y:0.994165 (22.339539) U:0.993983 (22.205981) V:0.993588 (21.930148) All:0.994038 (22.246388)
[out#0/null @ 00000231db358a00] video:14903KiB audio:271276KiB subtitle:0KiB other streams:0KiB global headers:0KiB muxing overhead: unknown
frame=34683 fps=358 q=-0.0 Lsize=N/A time=00:24:06.57 bitrate=N/A speed=14.9x    
